<?xml version="1.0" encoding="utf-8"?>
<!-- Generator: Adobe Illustrator 24.1.1, SVG Export Plug-In . SVG Version: 6.00 Build 0)  -->
<svg version="1.1" id="Layer_1" xmlns="http://www.w3.org/2000/svg" xmlns:xlink="http://www.w3.org/1999/xlink" x="0px" y="0px"
	 viewBox="0 0 1565 1565" style="enable-background:new 0 0 1565 1565;" xml:space="preserve">
<g>
	<path d="M684.7,616.8c5.5,7.6,10.6,15.4,16.6,22.5c15,17.8,30.6,35.1,45.5,53c14.3,17.2,28,34.9,42.1,52.2
		c7,8.6,14.5,16.8,21.6,25.2c18.6,22.2,37.3,44.3,55.8,66.7c16,19.3,31.7,38.9,47.8,58.2c13.7,16.4,27.9,32.3,41.4,48.8
		c14.5,17.5,28.6,35.5,42.8,53.2c3.1,3.9,6.3,7.8,10,12.5c22.5-27.1,43.5-52.2,64.3-77.5c20.5-25,40.7-50.1,61-75.2
		c20.1-24.9,40.2-49.8,60.5-74.6c17.3-21.1,35.2-41.8,52.3-63.2c9-11.2,16.4-23.7,25.5-34.9c3.5-4.3,9.7-8.9,14.7-9
		c63.1-0.6,126.2-0.3,189.3-0.3c1.1,0,2.2,0.4,4.7,1c-0.9,2.5-1.2,5.2-2.6,6.9c-16.4,19.1-33.5,37.7-49.5,57.2
		c-16.6,20.2-31.9,41.5-48.2,62c-12.1,15.2-25.1,29.8-37.3,44.9c-12.5,15.3-24.4,31.1-36.8,46.4c-11.9,14.8-24.2,29.3-36.2,44.1
		c-14.3,17.7-28.3,35.7-42.8,53.3c-13.3,16.2-27.4,31.8-40.6,48c-12.7,15.6-24.8,31.7-37.2,47.5c-9.6,12.2-18.3,25.5-29.4,36.2
		c-9.9,9.5-3.9,15.8,1.5,22.3c14.2,17.4,29.4,34,43.5,51.4c17.4,21.5,34.1,43.5,51.3,65.1c7.4,9.2,15.6,17.7,23.1,26.9
		c19.6,24.1,38.9,48.6,58.7,72.6c14.6,17.7,30.2,34.5,44.8,52.2c11.3,13.8,21.5,28.4,32.4,42.4c6.3,8.1,13.2,15.8,19.7,23.7
		c16,19.4,31.9,38.8,47.9,58.1c1.5,1.8,4.2,2.7,8,5c-3.7,2.3-6,5.1-8.3,5.1c-47.1-0.4-94.2-1.1-141.3-1.7
		c-15.1-0.2-30.2,0.5-45.3-0.4c-5-0.3-10.7-3.4-14.5-6.9c-5.9-5.3-10.5-12-15.5-18.3c-15-18.6-29.8-37.4-45-55.8
		c-13.6-16.4-27.9-32.3-41.5-48.7c-14.8-17.9-29.1-36.1-43.8-54.1c-7-8.6-14.4-16.8-21.5-25.2c-19.5-23-38.9-46.1-58.4-69
		c-2.5-2.9-5.5-5.3-8.9-8.6c-5.5,6.2-10.9,11.9-15.8,17.9c-19.9,24.5-39.4,49.2-59.4,73.5c-18.9,22.9-38.5,45.3-57.4,68.2
		c-21.1,25.5-42,51.2-62.8,77c-12.9,15.9-25.3,32.2-38.5,47.9c-1.8,2.2-6.8,2.3-10.4,2.3c-57.7,0.1-115.3,0.1-173,0.1
		c-6.8,0-13.6,0-21.7,0c14.4-17.6,27.7-33.7,40.9-50c14.1-17.5,28-35.1,42.2-52.5c6.7-8.3,13.9-16.2,20.6-24.5
		c21.5-26.1,42.9-52.4,64.5-78.5c13.1-15.9,26.8-31.2,39.8-47.2c13.1-16.2,25.6-32.9,38.7-49.1c7.7-9.5,16.2-18.3,24-27.7
		c22.6-27.2,45-54.5,67.6-82c-8.1-10-15.6-19.1-23-28.2c-15.4-18.8-30.7-37.7-46.2-56.5c-12.1-14.7-24.4-29.2-36.4-43.9
		c-20.2-24.8-40.2-49.7-60.5-74.4c-6.5-8-13.5-15.6-20-23.6c-20.7-25.3-41-50.8-61.9-75.9c-14.1-17-29.2-33.3-43.2-50.4
		c-19-23.2-37.5-46.9-56.2-70.4c-5.7-7.1-11.7-14-17.6-21.1c-11.7-14.1-23.4-28.1-34.9-42.3c-7.8-9.6-16.9-12.6-30-12.2
		c-44.5,1.4-89,0.5-133.5,0.5c-19.3,0-38.5,0-59.1,0c0,138.8,0,276.4,0,414.8c-57.2,0-113.1,0-169.9,0c0-333.9,0-667.7,0-1001.7
		c6.2,0.3,12.5,0.8,18.8,0.8c113.8,0.1,227.6,0.2,341.4-0.1c28.2-0.1,56.4-2.2,84.6-2.4c18.8-0.1,37.8-0.1,56.3,2.9
		c24,3.9,47.6,10.8,71.3,16.6c11.3,2.8,23,4.9,33.6,9.5c13.5,5.8,26.4,13.1,38.9,20.8c27.9,17.1,53.4,37.3,75.9,61.2
		c28.3,30.1,49.2,64.8,62.6,103.5c5.1,14.8,5.8,31.1,8,46.9c1.6,11.3,3.7,22.8,3.1,34.1c-2.2,38.9-10.7,76.1-28.9,111.1
		c-18.4,35.4-42.1,66.9-72.2,92.4c-28.8,24.4-59.8,46.4-96.4,58.8C702.3,607.5,694.4,612.2,684.7,616.8z M284.1,198.2
		c0,92.8,0,184.3,0,276.6c3.7,0.3,7.1,0.7,10.5,0.7c95.6,0,191.2,0.2,286.8-0.2c11.7,0,23.7-1.4,34.9-4.7
		c20.6-6,40.7-13.3,58.1-26.9c17.7-13.9,35.3-27.8,46.3-47.8c13.5-24.5,21.3-49.7,14.5-79c-5.6-24.1-14-45.2-31.6-62.6
		c-15.9-15.8-32.3-30.3-53.3-39.9c-19.5-9-38.9-16.1-60.4-16.1c-97.1-0.1-194.3,0-291.4,0C293.9,198.2,289.3,198.2,284.1,198.2z"/>
</g>
</svg>
